<?xml version="1.0" encoding="utf-8"?>
<!-- Generator: Adobe Illustrator 24.0.0, SVG Export Plug-In . SVG Version: 6.00 Build 0)  -->
<svg version="1.1" id="Layer_1" xmlns="http://www.w3.org/2000/svg" xmlns:xlink="http://www.w3.org/1999/xlink" x="0px" y="0px"
	 viewBox="0 0 300 300" style="enable-background:new 0 0 300 300;" xml:space="preserve">
<style type="text/css">
	.st0{fill:#2688D8;}
	.st1{fill:#FFFFFF;}
</style>
<path class="st0" d="M281.5,150c0-72.6-58.9-131.5-131.5-131.5S18.5,77.4,18.5,150c0,72.6,58.8,131.4,131.4,131.5
	C222.6,281.5,281.4,222.6,281.5,150h-2.3H277"/>
<title>ICONS WEB HOME DM</title>
<path class="st1" d="M162.1,56.2c0,0-24.2,56.1,11.4,112.1c24,37.7,61.7,45.4,61.7,45.4S200.4,191,183.8,150s22-28.4,43.8-76.4
	c0,0-36.4,34.3-52.9,26.5C160.7,93.5,162.1,56.2,162.1,56.2z"/>
<path class="st1" d="M161.7,155.1c-0.7,26-0.9,45.2,18.3,88.7c-2.7-23.1-2.2-47.2-0.5-61.5C171.8,174.5,165.7,165.3,161.7,155.1z"/>
<path class="st1" d="M189.2,89.2c-3.2,6.4-9.5,9.7-13.9,7.4s-5.4-9.2-2.1-15.7s9.5-9.7,13.9-7.4S192.4,82.8,189.2,89.2z"/>
<path class="st1" d="M137.9,56.2c0,0,24.2,56.1-11.4,112.1c-24,37.7-61.7,45.4-61.7,45.4S99.6,191,116.2,150s-22-28.4-43.8-76.4
	c0,0,36.4,34.3,52.9,26.5C139.3,93.5,137.9,56.2,137.9,56.2z"/>
<path class="st1" d="M138.3,155.1c0.7,26,0.9,45.2-18.3,88.7c2.7-23.1,2.2-47.2,0.5-61.5C128.2,174.5,134.3,165.3,138.3,155.1z"/>
<path class="st1" d="M110.8,89.2c3.2,6.4,9.5,9.7,13.9,7.4s5.4-9.3,2.2-15.6s-9.5-9.7-13.9-7.4S107.6,82.8,110.8,89.2z"/>
</svg>
