<?xml version="1.0" encoding="utf-8"?>
<!-- Generator: Adobe Illustrator 24.0.0, SVG Export Plug-In . SVG Version: 6.00 Build 0)  -->
<svg version="1.1" id="Layer_1" xmlns="http://www.w3.org/2000/svg" xmlns:xlink="http://www.w3.org/1999/xlink" x="0px" y="0px"
	 viewBox="0 0 300 300" style="enable-background:new 0 0 300 300;" xml:space="preserve">
<style type="text/css">
	.st0{fill:#2688D8;}
	.st1{fill:#FFFFFF;}
</style>
<title>ICONS WEB HOME DM</title>
<path class="st0" d="M281.5,150c0-72.6-58.9-131.5-131.5-131.5C77.4,18.5,18.6,77.4,18.6,150c0,72.6,58.8,131.4,131.4,131.5
	C222.6,281.5,281.5,222.6,281.5,150h-2.3H277"/>
<path class="st1" d="M71,73.5c5.8,31.4,74.5,22.1,87.1,54.3c0,0,5.4-15.8-12-29.7c-15.4-12.3-32.4-12.1-52.9-13.3
	C75.4,83.8,71,73.5,71,73.5z"/>
<path class="st1" d="M137.1,114.8c8.5,9.6-7.4,23.5,3.9,35.5c11.1,11.9,55.6-13.6,63.7,7.3c0.6-8.3-4.1-16.1-11.6-19.6
	c-13.3-6.5-31.5,1.9-41-12.2C145.2,115.9,137.1,114.8,137.1,114.8z"/>
<path class="st1" d="M186.9,152.6c2.4,12.9-21.2,23.8-3.8,52.1c0,0-0.5-24.3,20-44.2c-1.5-2.8-3.7-5.1-6.4-6.7
	C192.3,151.6,186.9,152.6,186.9,152.6z"/>
<path class="st1" d="M159.3,112.2c0,0,9.4-29.1-35-27.7C124.4,84.5,157.1,92.1,159.3,112.2z"/>
<path class="st1" d="M151.6,66.7c5.6,4.4,7.7,11,4.6,14.9s-10,3.5-15.6-0.8s-7.7-11-4.7-14.9S146.1,62.3,151.6,66.7z"/>
<path class="st1" d="M164.8,155.9c-4.8,0.8-9.6,1.2-14.4,1.1c-3.1,0-6.2-0.7-8.9-2.1c1.1,19.4-11.2,32.8-11.7,49.4
	c-0.7,25.2,15.1,47.1,15.1,47.1s-11.1-34.6,5.3-62.1C159.6,173.4,163.4,162.7,164.8,155.9z"/>
<path class="st1" d="M126.4,204.2c0.1-2.3,0.3-4.5,0.8-6.7c-9.2-6.2-17.5-13.7-24.6-22.3c-16.1-19.3-24.7-41.5-25.6-61.6
	c-3.2,23.7,5.6,52.5,25.8,76.7c7,8.4,15,15.8,24,22C126.5,209.6,126.4,206.9,126.4,204.2z"/>
<path class="st1" d="M224.6,146.8c3.4,22.2-2.1,42.8-17.1,55.3c-15.8,13.2-38.6,14.4-61.1,5.6c-1.1,4.8-1.7,9.8-1.8,14.7
	c24,10.5,48.9,9.8,65.9-4.4C229.1,202.5,233.5,174.8,224.6,146.8z"/>
</svg>
