<svg id="Layer_1" data-name="Layer 1" xmlns="http://www.w3.org/2000/svg" viewBox="0 0 300 300"><defs><style>.cls-1{fill:#2688d8;}.cls-2{fill:#d61261;}.cls-3{fill:none;stroke:#fff;stroke-miterlimit:10;stroke-width:4.92px;}</style></defs><title>ICONS WEB HOME DM</title><path class="cls-1" d="M279.21,150H277a126.94,126.94,0,1,1-37.18-89.77A126.53,126.53,0,0,1,277,150h4.52A131.47,131.47,0,1,0,150,281.47,131.47,131.47,0,0,0,281.47,150Z"/><path class="cls-2" d="M168.61,76.62c48.82,15.94,73.31,75.06,54.7,132a127,127,0,0,1-9.36,21.6A124,124,0,0,0,232,195.07c18.61-57-6-116.16-55-132.16C133.24,48.62,84.88,73.61,61.77,119.7,86.87,82.59,129.59,63.88,168.61,76.62Z"/><path class="cls-3" d="M170.36,117.44c14-22.16,10.82-60.63,10.82-60.63-3.87,32.15-14.33,45.82-27.75,48.33C160.26,107.65,166.2,111.58,170.36,117.44Z"/><path class="cls-1" d="M83.15,243.19c11.77-10.84,65.95-67.91,66.66-104,.38-19.26-17.37-32.4-58.58-29.59,0,0,59.84-16.6,77.48,11.89C199.6,171.42,83.15,243.19,83.15,243.19Z"/><path class="cls-1" d="M123,183.07a1.44,1.44,0,1,1,1.44-1.44A1.45,1.45,0,0,1,123,183.07Z"/><circle class="cls-1" cx="128.42" cy="172.99" r="2.43"/><circle class="cls-1" cx="133.27" cy="164.02" r="3.06"/><path class="cls-1" d="M137.26,158.07a3.43,3.43,0,1,1,3.43-3.42A3.42,3.42,0,0,1,137.26,158.07Z"/><path class="cls-1" d="M139.84,148.35a3.55,3.55,0,1,1,3.55-3.55A3.55,3.55,0,0,1,139.84,148.35Z"/><circle class="cls-1" cx="139.47" cy="134.69" r="3.43"/><circle class="cls-1" cx="133.78" cy="126.42" r="3.07"/><path class="cls-1" d="M124.8,124.16a2.44,2.44,0,1,1,2.44-2.44A2.44,2.44,0,0,1,124.8,124.16Z"/><path class="cls-1" d="M114.88,120.89a1.45,1.45,0,1,1,1.45-1.45A1.44,1.44,0,0,1,114.88,120.89Z"/><path class="cls-1" d="M171.23,164.51a126.74,126.74,0,0,1-11.11,16.67c20.94,23.26,38.4,52.81,42.75,62C202.87,243.19,191.65,199.05,171.23,164.51Z"/><path class="cls-1" d="M170.36,117.44c14-22.16,10.82-60.63,10.82-60.63-3.87,32.15-14.33,45.82-27.75,48.33C160.26,107.65,166.2,111.58,170.36,117.44Z"/><ellipse class="cls-1" cx="143.74" cy="95.14" rx="8.32" ry="11.17" transform="translate(-22.69 140.01) rotate(-48.59)"/></svg>