<?xml version="1.0" encoding="utf-8"?>
<!-- Generator: Adobe Illustrator 24.0.0, SVG Export Plug-In . SVG Version: 6.00 Build 0)  -->
<svg version="1.1" id="Layer_1" xmlns="http://www.w3.org/2000/svg" xmlns:xlink="http://www.w3.org/1999/xlink" x="0px" y="0px"
	 viewBox="0 0 300 300" style="enable-background:new 0 0 300 300;" xml:space="preserve">
<style type="text/css">
	.st0{fill:#2688D8;}
	.st1{fill:#FFFFFF;}
</style>
<path class="st0" d="M281.5,150c0-72.6-58.9-131.5-131.5-131.5S18.5,77.4,18.5,150c0,72.6,58.8,131.4,131.4,131.5
	C222.6,281.5,281.4,222.6,281.5,150h-2.3H277"/>
<title>ICONS WEB HOME DM</title>
<path class="st0" d="M726.8,55.9h-2.2c0,70.1-56.8,126.9-126.9,126.9S470.7,126,470.7,55.9S527.5-71,597.6-71
	c33.7,0,65.9,13.4,89.8,37.2c23.8,23.8,37.2,56.1,37.2,89.8h4.5c0-72.6-58.9-131.5-131.5-131.5c-72.6,0-131.5,58.9-131.5,131.5
	c0,72.6,58.8,131.4,131.4,131.5c72.6,0,131.5-58.9,131.5-131.5H726.8z"/>
<path class="st1" d="M128.4,244.1c24.6-20.7,55.7-63.9,23.1-107.3c-28.6-38.1-32.8-64.2-18-80.9c0,0-17.1,25.5,23.1,62
	c39.5,35.8,27.6,75.6,15.1,93.4C160.8,226.8,128.4,244.1,128.4,244.1z"/>
<circle class="st1" cx="163.6" cy="96.3" r="13.5"/>
<path class="st1" d="M161.6,178.5c0.2-10.7-2.5-21.2-7.6-30.5c-3.5,32.7-33.3,54.8-55.9,65.1c0,0,35.8-7.9,50.5-19.9
	C153.6,188.9,158,184,161.6,178.5z"/>
<path class="st1" d="M134.6,79.1c0.6,2.5,1.4,5,2.5,7.4c17.7-13.3,36.2-22,52.2-25.5C174,60.8,154.3,67.1,134.6,79.1z"/>
<path class="st1" d="M125.1,181.8c-14.1,1.8-25.6-1-31.8-8.9c-12.7-16.3,1.3-48.8,31.4-76.1c-1-3.1-1.8-6.3-2.4-9.5
	c-1.3,1-2.7,2-4,3c-37.8,29.3-56.8,67.9-42.5,86.4C84.4,187.8,103.3,189,125.1,181.8z"/>
<path class="st1" d="M223.7,74.9c-9-10.9-27.8-11.5-49.4-3.6c14-2.3,25.6,0.2,32,7.9c12.2,14.8,2,44.2-22.9,70.9
	c1.2,3.4,2.1,7,2.8,10.5C221.5,130.6,238.3,92.6,223.7,74.9z"/>
</svg>
