<svg id="Layer_1" data-name="Layer 1" xmlns="http://www.w3.org/2000/svg" viewBox="0 0 300 300"><defs><style>.cls-1{fill:#d61261;}.cls-2{fill:#2688d8;}</style></defs><title>ICONS WEB HOME DM</title><path class="cls-1" d="M162.09,56.16s-24.22,56.09,11.45,112.11c24,37.71,61.72,45.45,61.72,45.45S200.4,191,183.78,150s22-28.45,43.8-76.4c0,0-36.44,34.29-52.92,26.53C160.69,93.52,162.09,56.16,162.09,56.16Z"/><path class="cls-1" d="M161.67,155.11c-.74,26-.91,45.16,18.32,88.73-2.73-23.08-2.2-47.18-.54-61.51A82.32,82.32,0,0,1,161.67,155.11Z"/><path class="cls-1" d="M189.18,89.21c-3.24,6.37-9.46,9.7-13.89,7.45S169.9,87.41,173.14,81s9.46-9.7,13.89-7.45S192.43,82.84,189.18,89.21Z"/><path class="cls-2" d="M137.91,56.16s24.22,56.09-11.45,112.11c-24,37.71-61.72,45.45-61.72,45.45S99.6,191,116.22,150s-22-28.45-43.8-76.4c0,0,36.44,34.29,52.92,26.53C139.31,93.52,137.91,56.16,137.91,56.16Z"/><path class="cls-2" d="M138.33,155.11c.74,26,.91,45.16-18.32,88.73,2.73-23.08,2.2-47.18.54-61.51A82.32,82.32,0,0,0,138.33,155.11Z"/><path class="cls-2" d="M110.82,89.21c3.24,6.37,9.46,9.7,13.89,7.45s5.39-9.25,2.15-15.62-9.46-9.7-13.89-7.45S107.57,82.84,110.82,89.21Z"/><path class="cls-2" d="M279.21,150H277a126.94,126.94,0,1,1-37.18-89.77A126.53,126.53,0,0,1,277,150h4.52A131.47,131.47,0,1,0,150,281.47,131.47,131.47,0,0,0,281.47,150Z"/></svg>