<svg id="Layer_1" data-name="Layer 1" xmlns="http://www.w3.org/2000/svg" viewBox="0 0 300 300"><defs><style>.cls-1{fill:#2688d8;}.cls-2{fill:#d61261;}</style></defs><title>ICONS WEB HOME DM</title><path class="cls-1" d="M279.21,150H277a126.94,126.94,0,1,1-37.18-89.77A126.53,126.53,0,0,1,277,150h4.52A131.47,131.47,0,1,0,150,281.47,131.47,131.47,0,0,0,281.47,150Z"/><path class="cls-1" d="M128.44,244.08c24.63-20.66,55.66-63.94,23.06-107.29-28.62-38.07-32.78-64.16-18-80.87,0,0-17.14,25.53,23.05,62,39.53,35.83,27.56,75.64,15.09,93.43C160.81,226.81,128.44,244.08,128.44,244.08Z"/><circle class="cls-1" cx="163.55" cy="96.33" r="13.49" transform="translate(11.51 209.95) rotate(-67.27)"/><path class="cls-1" d="M161.63,178.51A61.3,61.3,0,0,0,154,148c-3.52,32.71-33.31,54.83-55.86,65.05,0,0,35.83-7.92,50.47-19.92A67.13,67.13,0,0,0,161.63,178.51Z"/><path class="cls-2" d="M134.58,79.08a45.74,45.74,0,0,0,2.49,7.44c17.68-13.29,36.21-22,52.19-25.46C174,60.77,154.32,67.1,134.58,79.08Z"/><path class="cls-2" d="M125.09,181.76c-14.08,1.82-25.57-1-31.75-8.94C80.68,156.49,94.66,124,124.73,96.7a68.67,68.67,0,0,1-2.39-9.46q-2,1.49-4,3c-37.75,29.25-56.76,67.91-42.47,86.36C84.45,187.77,103.25,189,125.09,181.76Z"/><path class="cls-2" d="M223.68,74.93c-9-10.86-27.79-11.47-49.4-3.57,14-2.27,25.59.16,32,7.93,12.22,14.78,2,44.18-22.9,70.88a69.64,69.64,0,0,1,2.78,10.54C221.46,130.56,238.25,92.55,223.68,74.93Z"/></svg>