<?xml version="1.0" encoding="utf-8"?>
<!-- Generator: Adobe Illustrator 24.0.0, SVG Export Plug-In . SVG Version: 6.00 Build 0)  -->
<svg version="1.1" id="Layer_1" xmlns="http://www.w3.org/2000/svg" xmlns:xlink="http://www.w3.org/1999/xlink" x="0px" y="0px"
	 viewBox="0 0 300 300" style="enable-background:new 0 0 300 300;" xml:space="preserve">
<style type="text/css">
	.st0{fill:#2688D8;}
	.st1{fill:#FFFFFF;}
</style>
<path class="st0" d="M281.5,150c0-72.6-58.9-131.5-131.5-131.5S18.5,77.4,18.5,150c0,72.6,58.8,131.4,131.4,131.5
	C222.6,281.5,281.4,222.6,281.5,150h-2.3H277"/>
<title>ICONS WEB HOME DM</title>
<path class="st1" d="M168.6,76.6c48.8,15.9,73.3,75.1,54.7,132c-2.4,7.5-5.6,14.7-9.4,21.6c7.9-10.7,14-22.5,18.1-35.1
	c18.6-57-6-116.2-55-132.2c-43.8-14.3-92.1,10.7-115.2,56.8C86.9,82.6,129.6,63.9,168.6,76.6z"/>
<path class="st1" d="M170.4,117.4c14-22.2,10.8-60.6,10.8-60.6c-3.9,32.2-14.3,45.8-27.8,48.3C160.3,107.7,166.2,111.6,170.4,117.4z
	"/>
<path class="st1" d="M83.2,243.2c11.8-10.8,66-67.9,66.7-104c0.4-19.3-17.4-32.4-58.6-29.6c0,0,59.8-16.6,77.5,11.9
	C199.6,171.4,83.2,243.2,83.2,243.2z"/>
<path class="st1" d="M123,183.1c-0.8,0-1.4-0.6-1.4-1.4c0-0.8,0.6-1.4,1.4-1.4c0.8,0,1.4,0.6,1.4,1.4
	C124.4,182.4,123.8,183.1,123,183.1z"/>
<circle class="st1" cx="128.4" cy="173" r="2.4"/>
<circle class="st1" cx="133.3" cy="164" r="3.1"/>
<path class="st1" d="M137.3,158.1c-1.9,0-3.4-1.5-3.4-3.4s1.5-3.4,3.4-3.4s3.4,1.5,3.4,3.4c0,0,0,0,0,0
	C140.7,156.5,139.2,158.1,137.3,158.1C137.3,158.1,137.3,158.1,137.3,158.1z"/>
<path class="st1" d="M139.8,148.4c-2,0-3.6-1.6-3.6-3.6c0-2,1.6-3.6,3.6-3.6c2,0,3.6,1.6,3.6,3.6
	C143.4,146.8,141.8,148.4,139.8,148.4L139.8,148.4z"/>
<circle class="st1" cx="139.5" cy="134.7" r="3.4"/>
<circle class="st1" cx="133.8" cy="126.4" r="3.1"/>
<path class="st1" d="M124.8,124.2c-1.3,0-2.4-1.1-2.4-2.4c0-1.3,1.1-2.4,2.4-2.4c1.3,0,2.4,1.1,2.4,2.4S126.1,124.2,124.8,124.2
	C124.8,124.2,124.8,124.2,124.8,124.2z"/>
<path class="st1" d="M114.9,120.9c-0.8,0-1.5-0.6-1.5-1.4s0.6-1.5,1.4-1.5s1.5,0.6,1.5,1.4v0C116.3,120.2,115.7,120.9,114.9,120.9
	C114.9,120.9,114.9,120.9,114.9,120.9z"/>
<path class="st1" d="M171.2,164.5c-3.3,5.8-7,11.4-11.1,16.7c20.9,23.3,38.4,52.8,42.8,62C202.9,243.2,191.6,199.1,171.2,164.5z"/>
<path class="st1" d="M170.4,117.4c14-22.2,10.8-60.6,10.8-60.6c-3.9,32.2-14.3,45.8-27.8,48.3C160.3,107.7,166.2,111.6,170.4,117.4z
	"/>
<ellipse transform="matrix(0.6614 -0.75 0.75 0.6614 -22.6867 140.0134)" class="st1" cx="143.7" cy="95.1" rx="8.3" ry="11.2"/>
</svg>
