<svg id="Layer_1" data-name="Layer 1" xmlns="http://www.w3.org/2000/svg" viewBox="0 0 300 300"><defs><style>.cls-1{fill:#2688d8;}.cls-2{fill:#d61261;}</style></defs><title>ICONS WEB HOME DM</title><path class="cls-1" d="M279.21,150H277a126.94,126.94,0,1,1-37.18-89.77A126.53,126.53,0,0,1,277,150h4.52A131.47,131.47,0,1,0,150,281.47,131.47,131.47,0,0,0,281.47,150Z"/><path class="cls-2" d="M71,73.54c5.8,31.36,74.52,22.07,87.1,54.31,0,0,5.44-15.79-12-29.68-15.45-12.35-32.38-12.08-52.93-13.29C75.38,83.84,71,73.54,71,73.54Z"/><path class="cls-1" d="M137.06,114.82c8.49,9.62-7.38,23.46,3.88,35.54,11.06,11.86,55.61-13.65,63.69,7.25A20,20,0,0,0,193,138.05c-13.25-6.5-31.51,1.95-41-12.18C145.21,115.86,137.06,114.82,137.06,114.82Z"/><path class="cls-1" d="M186.94,152.63c2.38,12.88-21.2,23.76-3.83,52.13,0,0-.5-24.34,20-44.22a16.5,16.5,0,0,0-6.45-6.72C192.31,151.55,186.94,152.63,186.94,152.63Z"/><path class="cls-2" d="M159.33,112.16s9.41-29.11-35-27.7C124.38,84.46,157.06,92.14,159.33,112.16Z"/><path class="cls-2" d="M151.64,66.68c5.59,4.36,7.67,11,4.64,14.93s-10,3.52-15.62-.84S133,69.73,136,65.84,146.05,62.32,151.64,66.68Z"/><path class="cls-1" d="M164.84,155.85A78.92,78.92,0,0,1,150.39,157a20.15,20.15,0,0,1-8.94-2.14c1.09,19.37-11.22,32.85-11.68,49.36-.71,25.16,15.13,47.06,15.13,47.06s-11.13-34.63,5.29-62.1C159.61,173.44,163.41,162.7,164.84,155.85Z"/><path class="cls-2" d="M126.42,204.16a41.27,41.27,0,0,1,.78-6.72,118.09,118.09,0,0,1-24.55-22.28C86.58,155.89,77.91,133.67,77,113.6c-3.22,23.7,5.6,52.48,25.81,76.7a121.44,121.44,0,0,0,24,22A64.81,64.81,0,0,1,126.42,204.16Z"/><path class="cls-2" d="M224.61,146.76c3.44,22.24-2.1,42.84-17.08,55.35-15.82,13.19-38.64,14.41-61.08,5.55a75.35,75.35,0,0,0-1.83,14.7c24,10.49,48.87,9.78,65.85-4.39C229.05,202.47,233.47,174.84,224.61,146.76Z"/></svg>