<svg xmlns="http://www.w3.org/2000/svg" viewBox="0 0 116.47 51.59"><defs><style>.a{fill:#fff;}.b{fill:#5f6368;}.c{fill:#4285f4;}.d{fill:#34a853;}.e{fill:#fabb05;}.f{fill:#e94235;}</style></defs><rect class="a" width="116.47" height="51.59" rx="3.5"></rect><path class="b" d="M55.87,13.52V22.3h5.42a4.27,4.27,0,0,0,3.2-1.3,4.29,4.29,0,0,0,0-6.15,4.23,4.23,0,0,0-3.2-1.34H55.87Zm0,11.88V35.59H52.63V10.42h8.59a7.75,7.75,0,0,1,5.55,2.18,7,7,0,0,1,2.33,5.31,7,7,0,0,1-2.33,5.34,7.74,7.74,0,0,1-5.55,2.15Z"></path><path class="b" d="M72.37,30.32a2.6,2.6,0,0,0,1.07,2.11,4,4,0,0,0,2.52.84,5.15,5.15,0,0,0,3.64-1.51,4.72,4.72,0,0,0,1.6-3.55A6.64,6.64,0,0,0,77,27a5.43,5.43,0,0,0-3.29.95,2.8,2.8,0,0,0-1.32,2.35m4.19-12.51a8,8,0,0,1,5.66,1.91A6.79,6.79,0,0,1,84.3,25V35.59H81.2V33.2h-.14a6.16,6.16,0,0,1-5.35,2.95A6.94,6.94,0,0,1,71,34.47,5.39,5.39,0,0,1,69,30.25a5.1,5.1,0,0,1,2-4.25,8.5,8.5,0,0,1,5.4-1.59,9.6,9.6,0,0,1,4.75,1.06v-.74a3.66,3.66,0,0,0-1.34-2.87,4.59,4.59,0,0,0-3.13-1.17A5,5,0,0,0,72.44,23l-2.85-1.79a7.94,7.94,0,0,1,7-3.37"></path><polygon class="b" points="102.07 18.37 91.27 43.18 87.92 43.18 91.94 34.5 84.83 18.37 88.35 18.37 93.48 30.74 93.55 30.74 98.55 18.37 102.07 18.37"></polygon><path class="c" d="M42.78,23.2a16.5,16.5,0,0,0-.25-2.94H28.88v5.57H36.7a6.67,6.67,0,0,1-2.89,4.39v3.62h4.67a14.15,14.15,0,0,0,4.3-10.64"></path><path class="d" d="M28.88,37.33a13.87,13.87,0,0,0,9.6-3.49l-4.67-3.62a8.78,8.78,0,0,1-13.06-4.58H15.94v3.72a14.48,14.48,0,0,0,12.94,8"></path><path class="e" d="M20.75,25.64a8.75,8.75,0,0,1,0-5.54V16.38H15.94a14.45,14.45,0,0,0,0,13Z"></path><path class="f" d="M28.88,14.13a7.87,7.87,0,0,1,5.55,2.17h0l4.14-4.12a13.9,13.9,0,0,0-9.69-3.77,14.48,14.48,0,0,0-12.94,8l4.81,3.72a8.67,8.67,0,0,1,8.13-6"></path></svg>