<svg xmlns="http://www.w3.org/2000/svg" viewBox="0 0 116.47 51.59"><defs><style>.a{fill:#fff;}.b{fill:#009de2;}.b,.c,.d{fill-rule:evenodd;}.c{fill:#113984;}.d{fill:#172c70;}</style></defs><rect class="a" width="116.47" height="51.59" rx="3.5"></rect><path class="b" d="M17,19.39h6.83c3.66,0,5,1.86,4.83,4.59-.35,4.5-3.07,7-6.68,7H20.16c-.49,0-.82.32-1,1.21l-.78,5.16a.57.57,0,0,1-.49.56H13.65c-.4,0-.55-.31-.44-1l2.61-16.55A1.05,1.05,0,0,1,17,19.39Z"></path><path class="c" d="M46.64,19.09c2.31,0,4.43,1.25,4.14,4.36-.35,3.69-2.34,5.75-5.46,5.76H42.59c-.4,0-.59.32-.69,1l-.53,3.36c-.08.51-.34.76-.72.76H38.11c-.41,0-.55-.26-.46-.84L39.75,20c.1-.66.36-.9.81-.9ZM42.5,26.3h2.07c1.3-.05,2.16-.95,2.24-2.57A1.56,1.56,0,0,0,45.12,22H43.17L42.5,26.3Zm15.19,7c.23-.21.47-.32.43-.06l-.08.62c0,.33.09.5.39.5h2.26c.38,0,.57-.15.66-.74l1.39-8.74c.07-.43,0-.65-.37-.65H59.89c-.23,0-.33.13-.39.47l-.09.54c0,.28-.18.32-.3,0-.42-1-1.5-1.44-3-1.41A6.21,6.21,0,0,0,50,29.94a4.21,4.21,0,0,0,4.16,4.69,4.51,4.51,0,0,0,3.51-1.36ZM55.8,31.93a2.28,2.28,0,0,1-2.33-2.67,3.25,3.25,0,0,1,3.12-2.66,2.27,2.27,0,0,1,2.33,2.66,3.25,3.25,0,0,1-3.12,2.67Zm11.36-7.76H64.88c-.47,0-.66.35-.51.79l2.84,8.33-2.8,4c-.23.33,0,.63.28.63h2.57A.8.8,0,0,0,68,37.5L76.77,25c.27-.39.14-.79-.3-.79H74c-.42,0-.59.17-.83.52L69.56,30l-1.62-5.3A.7.7,0,0,0,67.16,24.17Z"></path><path class="b" d="M85.87,19.09c2.31,0,4.43,1.25,4.14,4.36-.35,3.69-2.34,5.75-5.46,5.76H81.82c-.4,0-.59.32-.69,1l-.53,3.36c-.08.51-.34.76-.72.76H77.34c-.41,0-.55-.26-.46-.84L79,20c.1-.66.36-.9.81-.9ZM81.73,26.3H83.8c1.3-.05,2.16-.95,2.24-2.57A1.56,1.56,0,0,0,84.35,22H82.4l-.67,4.27Zm15.19,7c.23-.21.47-.32.43-.06l-.08.62c0,.33.09.5.39.5h2.26c.38,0,.57-.15.66-.74L102,24.85c.07-.43,0-.65-.37-.65H99.12c-.23,0-.33.13-.39.47l-.09.54c0,.28-.18.32-.3,0-.42-1-1.5-1.44-3-1.41a6.21,6.21,0,0,0-6.09,6.1,4.21,4.21,0,0,0,4.16,4.69,4.51,4.51,0,0,0,3.51-1.36ZM95,31.93a2.27,2.27,0,0,1-2.33-2.67,3.25,3.25,0,0,1,3.12-2.66,2.27,2.27,0,0,1,2.33,2.66A3.25,3.25,0,0,1,95,31.93Zm10.42,2.42h-2.61a.31.31,0,0,1-.32-.36l2.29-14.51a.45.45,0,0,1,.44-.36h2.6a.31.31,0,0,1,.32.36L105.88,34A.45.45,0,0,1,105.45,34.35Z"></path><path class="c" d="M12.74,13.7h6.84c1.92,0,4.2.06,5.73,1.41A4.63,4.63,0,0,1,26.74,19c-.42,5.21-3.54,8.14-7.72,8.14H15.65c-.58,0-1,.38-1.12,1.41l-.94,6c-.06.39-.23.62-.54.64H8.85c-.47,0-.64-.35-.52-1.13l3-19.19A1.2,1.2,0,0,1,12.74,13.7Z"></path><path class="d" d="M14.63,27.92l1.19-7.55a1.05,1.05,0,0,1,1.19-1h6.83a6.69,6.69,0,0,1,2.75.5c-.68,4.65-3.68,7.23-7.62,7.23H15.6C15.16,27.12,14.83,27.34,14.63,27.92Z"></path></svg>