<svg xmlns="http://www.w3.org/2000/svg" viewBox="0 0 116.47 51.59"><defs><style>.a{fill:#1434cb;}.b{fill:#fff;}</style></defs><rect class="a" width="116.47" height="51.59" rx="3.5"></rect><path class="b" d="M46.18,10.84l-12.57,30h-8.2L19.23,16.9a3.29,3.29,0,0,0-1.84-2.64,32.73,32.73,0,0,0-7.66-2.55l.19-.87h13.2a3.61,3.61,0,0,1,3.57,3.06L30,31.25,38,10.84ZM78.32,31c0-7.92-10.95-8.35-10.87-11.89,0-1.07,1-2.22,3.29-2.51A14.54,14.54,0,0,1,78.38,18l1.37-6.36a21,21,0,0,0-7.26-1.33c-7.67,0-13.06,4.08-13.11,9.92-.05,4.31,3.85,6.72,6.79,8.16s4,2.41,4,3.73c0,2-2.41,2.9-4.65,2.93a16.31,16.31,0,0,1-8-1.89l-1.41,6.57a23.64,23.64,0,0,0,8.63,1.59c8.15,0,13.48-4,13.51-10.26m20.24,9.79h7.18l-6.26-30H92.85a3.54,3.54,0,0,0-3.3,2.2L77.91,40.83h8.15l1.61-4.48h10ZM89.91,30.2,94,18.94,96.34,30.2ZM57.27,10.84l-6.42,30H43.1l6.41-30Z"></path></svg>