<svg xmlns="http://www.w3.org/2000/svg" viewBox="0 0 116.47 51.59"><defs><style>.a{fill:none;}.b{fill:#ff5f00;}.c{fill:#eb001b;}.d{fill:#f79e1b;}</style></defs><rect width="116.47" height="51.59" rx="3.5"></rect><rect class="a" x="15.87" y="-4.22" width="84.73" height="60.04"></rect><rect class="b" x="49.46" y="10.06" width="17.51" height="31.47"></rect><path class="c" d="M50.57,25.8a20,20,0,0,1,7.64-15.74,20,20,0,1,0,0,31.47A20,20,0,0,1,50.57,25.8Z"></path><path class="d" d="M90.59,25.8A20,20,0,0,1,58.21,41.53a20,20,0,0,0,0-31.47A20,20,0,0,1,90.59,25.8Z"></path><path class="d" d="M88.68,38.2v-.65h.26v-.13h-.66v.13h.26v.65Zm1.29,0v-.78h-.2l-.24.54-.23-.54h-.2v.78h.14v-.59l.22.51h.15l.22-.51v.59Z"></path></svg>