<svg xmlns="http://www.w3.org/2000/svg" viewBox="0 0 116.47 51.59"><defs><style>.a{fill:#232f3e;}.b{fill:#fff;}.b,.c{fill-rule:evenodd;}.c{fill:#f90;}</style></defs><rect class="a" width="116.47" height="51.59" rx="3.5"></rect><path class="b" d="M15.78,30.2a.43.43,0,0,1-.47.05,5,5,0,0,1-1.14-1.32,3.92,3.92,0,0,1-3.26,1.44,2.81,2.81,0,0,1-3-3.08,3.38,3.38,0,0,1,2.12-3.24,13.42,13.42,0,0,1,3.71-.68V23.1a2.49,2.49,0,0,0-.24-1.43,1.3,1.3,0,0,0-1.1-.51,1.53,1.53,0,0,0-1.6,1.19.41.41,0,0,1-.35.37l-1.91-.21a.37.37,0,0,1-.29-.42c.43-2.33,2.54-3,4.43-3a4.49,4.49,0,0,1,3,1c1,.89.88,2.1.88,3.4v3.08a2.7,2.7,0,0,0,.75,1.84.37.37,0,0,1,0,.52c-.42.33-1.14,1-1.54,1.32Zm-2-4.82a4,4,0,0,1-.36,2.1,1.62,1.62,0,0,1-1.37.89c-.75,0-1.21-.57-1.21-1.43,0-1.68,1.51-2,2.94-2v.44Z"></path><path class="b" d="M21.19,30.13h-2a.38.38,0,0,1-.35-.34V19.64a.38.38,0,0,1,.39-.37h1.84a.39.39,0,0,1,.36.35V21h0a2.73,2.73,0,0,1,5.18,0,2.8,2.8,0,0,1,2.73-1.87,2.76,2.76,0,0,1,2.29,1.12c.63.86.51,2.1.51,3.18v6.41a.37.37,0,0,1-.38.37h-2a.39.39,0,0,1-.35-.37V24.38a15.23,15.23,0,0,0,0-1.91,1,1,0,0,0-1.16-.87,1.32,1.32,0,0,0-1.19.84,5.93,5.93,0,0,0-.19,1.94v5.38a.38.38,0,0,1-.39.37h-2a.39.39,0,0,1-.35-.37V24.38c0-1.14.2-2.8-1.22-2.8s-1.37,1.63-1.37,2.8v5.38a.41.41,0,0,1-.4.37"></path><path class="b" d="M43.23,28.36a2.66,2.66,0,0,1-.75-1.84V23.44c0-1.32.09-2.51-.88-3.4a4.44,4.44,0,0,0-3-1c-1.89,0-4,.7-4.43,3a.36.36,0,0,0,.3.42l1.9.21c.18,0,.32-.19.35-.37a1.51,1.51,0,0,1,1.6-1.19,1.33,1.33,0,0,1,1.1.51,2.49,2.49,0,0,1,.25,1.43v.25A13.29,13.29,0,0,0,36,24a3.38,3.38,0,0,0-2.11,3.24,2.8,2.8,0,0,0,3,3.08,3.92,3.92,0,0,0,3.26-1.43,4.72,4.72,0,0,0,1.14,1.31.43.43,0,0,0,.47-.05h0l1.52-1.32C43.39,28.74,43.37,28.53,43.23,28.36Zm-3.88-.9a1.6,1.6,0,0,1-1.37.9c-.75,0-1.21-.58-1.21-1.44,0-1.68,1.51-2,2.94-2v.43A4,4,0,0,1,39.35,27.46Z"></path><path class="b" d="M44.91,21.06V19.6a.36.36,0,0,1,.37-.36h6.5a.35.35,0,0,1,.36.36v1.25a1.88,1.88,0,0,1-.49.91l-3.36,4.81a7.28,7.28,0,0,1,3.71.79.61.61,0,0,1,.35.56v1.56a.34.34,0,0,1-.47.33,7.45,7.45,0,0,0-6.86,0c-.23.12-.46-.13-.46-.34V28a1.68,1.68,0,0,1,.25-1l3.9-5.61H45.32c-.25,0-.41-.15-.41-.36"></path><path class="b" d="M57.76,21.13c-1.45,0-1.55,2-1.55,3.22s0,3.88,1.54,3.88,1.61-2.13,1.61-3.43a9.34,9.34,0,0,0-.3-2.69,1.25,1.25,0,0,0-1.3-1Zm0-2.09c2.94,0,4.51,2.52,4.51,5.73s-1.75,5.55-4.51,5.55S53.3,27.8,53.3,24.66,54.87,19,57.75,19Z"></path><path class="b" d="M66.1,30.11h-2a.39.39,0,0,1-.35-.37V19.59a.37.37,0,0,1,.38-.34H66a.38.38,0,0,1,.35.28v1.56h0A2.7,2.7,0,0,1,69.07,19a2.6,2.6,0,0,1,2.31,1.19,6.32,6.32,0,0,1,.53,3.17v6.39a.37.37,0,0,1-.39.32h-2a.37.37,0,0,1-.35-.32V24.26c0-1.1.12-2.73-1.25-2.73a1.26,1.26,0,0,0-1.13.8,4.51,4.51,0,0,0-.32,1.93v5.46a.42.42,0,0,1-.4.39"></path><path class="b" d="M82.19,20.79a4.72,4.72,0,0,0-2.79.95v5.78a4.54,4.54,0,0,0,2.73,1C84,28.51,85,27.24,85,24.66s-.93-3.87-2.8-3.87Zm-2.93-.28a6,6,0,0,1,1.68-1,5.07,5.07,0,0,1,1.82-.35,4.25,4.25,0,0,1,1.81.37,3.5,3.5,0,0,1,1.36,1.08,5,5,0,0,1,.86,1.72,8.29,8.29,0,0,1,.3,2.28,8,8,0,0,1-.32,2.32,5.17,5.17,0,0,1-.89,1.77,4.17,4.17,0,0,1-1.4,1.14,4.31,4.31,0,0,1-1.84.4A4.64,4.64,0,0,1,79.42,29v4.85a.37.37,0,0,1-.42.42H77.78a.37.37,0,0,1-.43-.42v-14a.37.37,0,0,1,.43-.42h.91a.43.43,0,0,1,.47.42l.1.66Z"></path><path class="b" d="M92.27,28.67a4.53,4.53,0,0,0,1.44-.26,5.32,5.32,0,0,0,1.43-.79V25.5c-.35-.08-.7-.14-1.08-.19A8.7,8.7,0,0,0,93,25.24c-1.55,0-2.34.6-2.34,1.8a1.56,1.56,0,0,0,.44,1.21,1.64,1.64,0,0,0,1.22.42Zm-2.41-7.42-.16.05a.65.65,0,0,1-.18,0c-.17,0-.26-.13-.26-.37v-.56a.73.73,0,0,1,.09-.4.67.67,0,0,1,.33-.21,7.45,7.45,0,0,1,1.65-.48,10.52,10.52,0,0,1,1.94-.17,4.4,4.4,0,0,1,2.91.8,3.22,3.22,0,0,1,.92,2.51v7.09a.37.37,0,0,1-.42.42h-.89a.41.41,0,0,1-.45-.39l-.11-.68a6.17,6.17,0,0,1-1.65,1,4.74,4.74,0,0,1-1.78.35,3.23,3.23,0,0,1-2.36-.84,3,3,0,0,1-.88-2.24,2.93,2.93,0,0,1,1.09-2.42,4.36,4.36,0,0,1,2.9-.91,11.4,11.4,0,0,1,2.61.35V22.82a2.09,2.09,0,0,0-.49-1.57,2.61,2.61,0,0,0-1.75-.46,10.06,10.06,0,0,0-3.06.46Z"></path><path class="b" d="M103.83,31.81a5,5,0,0,1-1.3,2,2.86,2.86,0,0,1-1.92.63,4.88,4.88,0,0,1-1.2-.14.54.54,0,0,1-.33-.19.69.69,0,0,1-.1-.42v-.54c0-.26.1-.39.31-.39l.32,0a2.87,2.87,0,0,0,.56,0,1.87,1.87,0,0,0,1.22-.36,3.06,3.06,0,0,0,.79-1.37l.39-1.05-4-9.87a1.8,1.8,0,0,1-.14-.49c0-.18.08-.25.29-.25H100a.72.72,0,0,1,.45.11.91.91,0,0,1,.25.45l2.9,8.05,2.81-8a1.26,1.26,0,0,1,.24-.45.73.73,0,0,1,.46-.11h1.15c.19,0,.3.09.3.25a1.8,1.8,0,0,1-.14.49l-4.55,11.59"></path><path class="c" d="M47.59,34.1a24.24,24.24,0,0,1-13.72,4.2,24.81,24.81,0,0,1-16.78-6.41c-.35-.31,0-.73.39-.49a33.66,33.66,0,0,0,16.79,4.45,33.29,33.29,0,0,0,12.8-2.63c.61-.26,1.13.42.52.88m1.54-1.77c.48.61-.52,3.12-1,4.24-.14.33.16.47.46.21,2-1.67,2.5-5.17,2.1-5.66s-3.89-.92-6,.56c-.34.23-.28.55.08.51,1.23-.14,3.89-.45,4.36.14"></path></svg>