<svg xmlns="http://www.w3.org/2000/svg" viewBox="0 0 116.47 51.59"><defs><style>.a{fill:#fff;}.b{fill:#2a2a89;}.c{fill:#0f8047;}.d{fill:#f0721d;}</style></defs><rect class="a" width="116.47" height="51.59" rx="3.5"></rect><path class="b" d="M62.91,20.17c.44-3.53-2.25-5-5.61-5H48.47l-5.21,19h5.61l1.58-5.86,4.47,0S61.84,28.63,62.91,20.17Zm-5.77,1.89a2.64,2.64,0,0,1-2.74,1.8H51.65l1.08-4h2.89A1.54,1.54,0,0,1,57.14,22.06Z"></path><path class="b" d="M30.85,20.36H36l-2.11,8.11s-.52,1.81,1.17,2c1.33.11,2.33-1.48,2.65-2.56.43-1.42,2.1-7.5,2.1-7.5h5.27L41,34.17H36.43l.57-2a7.29,7.29,0,0,1-5.84,2.52c-3.1-.3-3.37-2.55-2.83-5.36C28.59,28,30.85,20.36,30.85,20.36Z"></path><path class="b" d="M75.36,27.36c.67-2.3,1.52-4.47.84-5.68-1-1.84-3-2-5.73-2-3.07,0-6.86.58-8.09,4.66h5.11a2.23,2.23,0,0,1,2.38-1.44c1.7.09,1.6,1.25,1,1.9-1.1,1.13-4.13.5-7.48,1.67-2.94,1-4,4.87-3.33,6.41s1.77,1.68,3.32,1.83a7,7,0,0,0,5.29-2c0,.9,0,1.41,0,1.41h5.37v-.51a.7.7,0,0,1-.43-.8C73.65,32.37,74.58,30,75.36,27.36Zm-7.73,4c-.88.23-1.94.35-2.16-.45C64.9,28.72,70,28.08,70,28.08A3.53,3.53,0,0,1,67.63,31.35Z"></path><path class="b" d="M29.58,19.59c.44-3.53-2.67-4.42-6-4.42H14.72l-5.21,19h5.61l1.75-6.46,3.15,0s1.3-.07,1.33,1.15-1,3.69-.9,5.28h5.76v-.51a.7.7,0,0,1-.43-.8,18.62,18.62,0,0,1,.74-2.36,7.47,7.47,0,0,0,.58-2.8c-.05-1.27-.84-1.86-2-2.27C28.68,24.59,29.58,19.59,29.58,19.59Zm-6,2.43c-.72,1.68-3,1.49-3,1.49l-2.62,0,1-3.56h3.49C23.71,19.94,24.09,20.93,23.62,22Z"></path><path class="b" d="M77.79,20.36H83v8.28l4.51-8.28H92.3L82.65,37.11a8.39,8.39,0,0,1-2,2.14,4.48,4.48,0,0,1-2.38.61l-4.2,0,1.11-4H77A1.63,1.63,0,0,0,78.56,34C78.56,33.17,77.79,20.36,77.79,20.36Z"></path><polygon class="c" points="98.99 17.17 92.97 38.11 104.23 27.64 98.99 17.17"></polygon><polygon class="d" points="95.13 17.17 89.11 38.11 100.38 27.64 95.13 17.17"></polygon><path d="M106.33,17.73a2.28,2.28,0,1,1,2.29-2.28A2.29,2.29,0,0,1,106.33,17.73Zm0-4.36a2.08,2.08,0,1,0,2.08,2.08A2.08,2.08,0,0,0,106.33,13.37Z"></path><path d="M105.23,16.3V14.87h-.53v-.19H106v.19h-.54V16.3Z"></path><path d="M106.3,16.3V14.68h.33l.38,1.15.08.24a1.73,1.73,0,0,1,.08-.26l.39-1.13h.29V16.3h-.21V14.94l-.47,1.36H107l-.47-1.38V16.3Z"></path></svg>