<svg xmlns="http://www.w3.org/2000/svg" viewBox="0 0 116.47 51.59"><defs><style>.a{fill:#fff;}.b{fill:#3d3d3c;}.c{fill:#70706e;}.d{fill:#098041;}.e{fill:#e97626;}</style></defs><rect class="a" width="116.47" height="51.59" rx="3.5"></rect><path class="b" d="M13.78,37.25h.68l-.63,2.63a1.09,1.09,0,0,0,.05.88.81.81,0,0,0,.72.29,1.31,1.31,0,0,0,.86-.29,1.62,1.62,0,0,0,.47-.88l.64-2.63h.68L16.61,40a2.32,2.32,0,0,1-.75,1.31,2.24,2.24,0,0,1-1.41.44,1.39,1.39,0,0,1-1.19-.43A1.54,1.54,0,0,1,13.14,40Zm3.38,4.33,1.07-4.5,2,2.64c.05.08.11.15.16.24l.17.29.72-3H22l-1.07,4.49L18.8,39l-.16-.22a.91.91,0,0,1-.13-.26l-.72,3h-.63Zm4.74,0,1-4.33h.69l-1,4.33Zm1.66,0,1-4.33H27l-.14.6H25.14l-.26,1.08h1.67l-.15.61H24.73l-.48,2h-.69Zm3.12,0,1-4.33h.69l-1,4.33Zm1.66,0,1-4.33h2.35l-.14.6H29.92l-.26,1.09h1.67l-.15.61H29.51l-.33,1.39h1.66l-.15.64Zm3.15,0,1-4.33h.92a5.05,5.05,0,0,1,1.25.1,1.32,1.32,0,0,1,.57.31,1.34,1.34,0,0,1,.37.73,2.77,2.77,0,0,1-.05,1,3.48,3.48,0,0,1-.43,1,2.54,2.54,0,0,1-.73.73,2,2,0,0,1-.71.31,5,5,0,0,1-1.12.1h-1.1Zm.83-.65h.58a3.36,3.36,0,0,0,.73-.06,1.27,1.27,0,0,0,.47-.22,1.84,1.84,0,0,0,.48-.52,2.53,2.53,0,0,0,.29-.73,2.06,2.06,0,0,0,.05-.72,1,1,0,0,0-.23-.53.78.78,0,0,0-.38-.21,2.81,2.81,0,0,0-.76-.07h-.5l-.73,3.06Zm6.41-1.3-.46,1.95h-.64l1-4.33h1a3.42,3.42,0,0,1,.67,0,.76.76,0,0,1,.33.18.65.65,0,0,1,.21.4,1.52,1.52,0,0,1,0,.56,1.63,1.63,0,0,1-.25.57,1.42,1.42,0,0,1-.4.41,1.54,1.54,0,0,1-.42.17,3.82,3.82,0,0,1-.69,0h-.4Zm.19-.58h.17a1.85,1.85,0,0,0,.79-.12.68.68,0,0,0,.3-.46A.46.46,0,0,0,40.1,38a1.2,1.2,0,0,0-.71-.14h-.17Zm4.3,2.53L43,40.46H41.33l-.75,1.12h-.72L43,37.08l1,4.5Zm-1.48-1.71h1.17l-.19-1a1.33,1.33,0,0,1,0-.21,2.35,2.35,0,0,1,0-.27,1.38,1.38,0,0,1-.14.27,2.18,2.18,0,0,1-.12.22Zm3.19,1.71.47-2-.86-2.34h.72l.54,1.47a1.13,1.13,0,0,0,0,.15c0,.07,0,.13,0,.2l.13-.2.13-.17,1.26-1.45h.68l-2,2.33-.48,2h-.68Zm6.54-2.14s0-.13,0-.28,0-.22,0-.31c0,.1-.09.19-.14.3a2.49,2.49,0,0,1-.19.3l-1.66,2.31L49,39.41c0-.1,0-.19-.06-.28a2.45,2.45,0,0,1,0-.27c0,.09,0,.18-.08.29l-.13.31-1,2.13h-.63l2.07-4.51.59,2.73a1.69,1.69,0,0,1,0,.21c0,.1,0,.23.06.38.07-.13.17-.28.3-.48a.9.9,0,0,0,.07-.11l1.87-2.73L52,41.59h-.63l.06-2.15Zm1.13,2.14,1-4.33H56l-.13.6H54.18l-.26,1.09h1.67l-.15.61H53.77l-.33,1.39H55.1l-.15.64Zm3.14,0,1.07-4.5,2,2.64c0,.08.11.15.16.24a2.48,2.48,0,0,1,.17.29l.72-3h.64l-1.08,4.49L57.38,39l-.16-.22a1.26,1.26,0,0,1-.13-.26l-.72,3h-.63Zm7-3.74-.89,3.73h-.69L62,37.84H60.92l.14-.6H64l-.14.6Zm.72,2.87.61-.26a.58.58,0,0,0,.18.44.74.74,0,0,0,.49.15.8.8,0,0,0,.53-.17.78.78,0,0,0,.29-.46c.06-.26-.09-.49-.45-.68L65,39.67a2,2,0,0,1-.77-.64.91.91,0,0,1-.07-.68,1.48,1.48,0,0,1,.56-.86,1.59,1.59,0,0,1,1-.34,1.33,1.33,0,0,1,.74.19.69.69,0,0,1,.31.52l-.6.28a.69.69,0,0,0-.2-.3.59.59,0,0,0-.33-.1.82.82,0,0,0-.47.15.74.74,0,0,0-.26.4c-.06.26.12.51.54.73l.08,0a1.8,1.8,0,0,1,.72.57,1,1,0,0,1,.06.71,1.74,1.74,0,0,1-.61,1,1.77,1.77,0,0,1-1.11.37,1.2,1.2,0,0,1-.82-.26.81.81,0,0,1-.3-.73Zm5,.87,1-4.33h.69l-1,4.33Zm1.68,0,1.07-4.5,2,2.64c0,.08.11.15.16.24l.17.29.72-3H75L73.9,41.74,71.82,39l-.16-.22a.91.91,0,0,1-.13-.26l-.72,3h-.63Zm7-3.74-.9,3.73h-.68l.89-3.73H75.36l.14-.6h2.92l-.14.6Zm.74,3.74,1-4.33H81.3l-.14.6H79.49l-.25,1.09H80.9l-.15.61H79.09l-.34,1.39h1.67l-.15.64Zm4.24-1.95-.47,1.94H81l1-4.33h1a3.17,3.17,0,0,1,.63,0,.69.69,0,0,1,.35.19.68.68,0,0,1,.21.4,1.48,1.48,0,0,1,0,.55,1.66,1.66,0,0,1-.44.82,1.5,1.5,0,0,1-.81.35l1,2h-.77l-.94-1.94Zm.17-.54h.13A1.62,1.62,0,0,0,83.2,39a.74.74,0,0,0,.29-.46c.05-.24,0-.41-.08-.51a1,1,0,0,0-.67-.15h-.13Zm2,2.49,1-4.33h2.35l-.14.6H85.93l-.26,1.08h1.66l-.15.61H85.52l-.49,2h-.68Zm5.67,0-.22-1.12H88.13l-.76,1.12h-.71l3.11-4.5,1,4.5Zm-1.5-1.71h1.17l-.19-1a1.36,1.36,0,0,1,0-.21,2.35,2.35,0,0,1,0-.27l-.14.27a2.14,2.14,0,0,1-.13.22l-.68,1ZM95.2,38.3a1.28,1.28,0,0,0-.53-.37A1.48,1.48,0,0,0,94,37.8a1.87,1.87,0,0,0-1.23.45,2.08,2.08,0,0,0-.72,1.18,1.38,1.38,0,0,0,.15,1.16,1.06,1.06,0,0,0,1,.45,1.91,1.91,0,0,0,.74-.14,2.79,2.79,0,0,0,.75-.41l-.19.8a2.43,2.43,0,0,1-.68.3,2.86,2.86,0,0,1-.73.09,2,2,0,0,1-.85-.16,1.39,1.39,0,0,1-.62-.48,1.59,1.59,0,0,1-.3-.73,2.15,2.15,0,0,1,.06-.9,2.9,2.9,0,0,1,.37-.89,2.7,2.7,0,0,1,.66-.73,2.6,2.6,0,0,1,.83-.49,3,3,0,0,1,.92-.16,2.15,2.15,0,0,1,.68.11,1.81,1.81,0,0,1,.57.33l-.18.72Zm.06,3.28,1-4.33h2.35l-.14.6H96.84l-.25,1.09h1.66l-.15.61H96.43l-.33,1.39h1.67l-.15.64Z"></path><path class="c" d="M82.77,33.48H78.06L84.6,9.83h4.72ZM80.32,10.57a1.73,1.73,0,0,0-1.51-.67H52.91l-1.27,4.64H75.19l-1.37,4.94H50.26l-3.9,14.12h4.71l2.62-9.47H74.87a3,3,0,0,0,1.87-.67,3.14,3.14,0,0,0,1.14-1.68L80.5,12.3a1.91,1.91,0,0,0-.18-1.73ZM43.61,32a2.17,2.17,0,0,1-2.09,1.59H17.23a1.7,1.7,0,0,1-1.48-.68,1.84,1.84,0,0,1-.2-1.67L21.47,9.9h4.71L20.89,29H39.74L45,9.9h4.72L43.61,32Z"></path><path class="d" d="M97.45,9.88l6,11.85L90.88,33.58Z"></path><path class="e" d="M93.27,9.88l6,11.85L86.69,33.58Z"></path></svg>