<svg id="Layer_1" data-name="Layer 1" xmlns="http://www.w3.org/2000/svg" viewBox="0 0 951 932"><defs><style>.cls-1{fill:#e8e8e8;}.cls-2{fill:#d61261;}.cls-2,.cls-3,.cls-4{fill-rule:evenodd;}.cls-3{fill:#fff;}.cls-4{fill:#2688bf;}</style></defs><title>DM LOGO</title><circle class="cls-1" cx="475.5" cy="466" r="447"/><path class="cls-2" d="M367.82,153H660.56C468.18,325.66,401.38,527.5,521.9,772.85H334.63v-47.4H154.49c-15.84-1.34-21.32-7.6-22.52-22.52V388.85c.25-15.67,8.87-21.92,22.52-22.51H334.63V186.19A33.29,33.29,0,0,1,367.82,153"/><path class="cls-3" d="M295.8,725.45C307.75,480.39,392.65,264.37,637.62,153h-5.46c-247.22,92.65-336.65,338.64-349.5,572.45Z"/><path class="cls-4" d="M706.93,161.29C480.5,297.89,443,510.3,545.77,779h73c-70.43-168.38-104.43-350.45,88.13-617.71"/><path class="cls-4" d="M730.6,275c20.87,15,24.37,49.88,7.82,77.81s-46.89,38.38-67.76,23.33-24.36-49.87-7.81-77.8S709.74,259.94,730.6,275"/><path class="cls-4" d="M598.76,646.17c-5.63-87.74-5.18-175.83,18-265.17,23.8,40.49,49.85,78.65,201.12-13.17q.6,12.27,1.19,24.54c-123.08,76.47-185,163-220.27,253.8"/></svg>